<svg version="1.1" viewBox="0.0 0.0 600.0 371.0" fill="none" stroke="none" stroke-linecap="square" stroke-miterlimit="10" width="600" height="371" xmlns:xlink="http://www.w3.org/1999/xlink" xmlns="http://www.w3.org/2000/svg"><path fill="#ffffff" d="M0 0L600.0 0L600.0 371.0L0 371.0L0 0Z" fill-rule="nonzero"/><path stroke="#333333" stroke-width="1.0" stroke-linecap="butt" d="M78.5 298.5L581.5 298.5" fill-rule="nonzero"/><path stroke="#cccccc" stroke-width="1.0" stroke-linecap="butt" d="M78.5 246.5L581.5 246.5" fill-rule="nonzero"/><path stroke="#cccccc" stroke-width="1.0" stroke-linecap="butt" d="M78.5 194.5L581.5 194.5" fill-rule="nonzero"/><path stroke="#cccccc" stroke-width="1.0" stroke-linecap="butt" d="M78.5 141.5L581.5 141.5" fill-rule="nonzero"/><path stroke="#cccccc" stroke-width="1.0" stroke-linecap="butt" d="M78.5 89.5L581.5 89.5" fill-rule="nonzero"/><clipPath id="id_0"><path d="M78.55 89.78333L581.45 89.78333L581.45 298.45L78.55 298.45L78.55 89.78333Z" clip-rule="nonzero"/></clipPath><path stroke="#ff0000" stroke-width="2.0" stroke-linecap="butt" clip-path="url(#id_0)" d="M120.458336 246.28334L204.275 89.78333L288.09167 141.95L371.90833 246.28334L455.725 298.45L539.5417 246.28334" fill-rule="nonzero"/><path stroke="#0000ff" stroke-width="2.0" stroke-linecap="butt" clip-path="url(#id_0)" d="M120.458336 280.97415L204.275 268.715L288.09167 276.80084L371.90833 281.235L455.725 280.97415L539.5417 277.84418" fill-rule="nonzero"/><path fill="#000000" fill-opacity="0.0" clip-path="url(#id_0)" d="M123.458336 246.28334C123.458336 247.94019 122.11519 249.28334 120.458336 249.28334C118.801476 249.28334 117.458336 247.94019 117.458336 246.28334C117.458336 244.62648 118.801476 243.28334 120.458336 243.28334C122.11519 243.28334 123.458336 244.62648 123.458336 246.28334Z" fill-rule="nonzero"/><path fill="#000000" fill-opacity="0.0" clip-path="url(#id_0)" d="M207.275 89.78333C207.275 91.440186 205.93185 92.78333 204.275 92.78333C202.61815 92.78333 201.275 91.440186 201.275 89.78333C201.275 88.12648 202.61815 86.78333 204.275 86.78333C205.93185 86.78333 207.275 88.12648 207.275 89.78333Z" fill-rule="nonzero"/><path fill="#000000" fill-opacity="0.0" clip-path="url(#id_0)" d="M291.09167 141.95C291.09167 143.60686 289.74854 144.95 288.09167 144.95C286.4348 144.95 285.09167 143.60686 285.09167 141.95C285.09167 140.29315 286.4348 138.95 288.09167 138.95C289.74854 138.95 291.09167 140.29315 291.09167 141.95Z" fill-rule="nonzero"/><path fill="#000000" fill-opacity="0.0" clip-path="url(#id_0)" d="M374.90833 246.28334C374.90833 247.94019 373.5652 249.28334 371.90833 249.28334C370.25146 249.28334 368.90833 247.94019 368.90833 246.28334C368.90833 244.62648 370.25146 243.28334 371.90833 243.28334C373.5652 243.28334 374.90833 244.62648 374.90833 246.28334Z" fill-rule="nonzero"/><path fill="#000000" fill-opacity="0.0" clip-path="url(#id_0)" d="M458.725 298.45C458.725 300.10684 457.38187 301.45 455.725 301.45C454.06815 301.45 452.725 300.10684 452.725 298.45C452.725 296.79315 454.06815 295.45 455.725 295.45C457.38187 295.45 458.725 296.79315 458.725 298.45Z" fill-rule="nonzero"/><path fill="#000000" fill-opacity="0.0" clip-path="url(#id_0)" d="M542.5417 246.28334C542.5417 247.94019 541.19855 249.28334 539.5417 249.28334C537.8848 249.28334 536.5417 247.94019 536.5417 246.28334C536.5417 244.62648 537.8848 243.28334 539.5417 243.28334C541.19855 243.28334 542.5417 244.62648 542.5417 246.28334Z" fill-rule="nonzero"/><path fill="#000000" fill-opacity="0.0" clip-path="url(#id_0)" d="M123.458336 280.97415C123.458336 282.631 122.11519 283.97415 120.458336 283.97415C118.801476 283.97415 117.458336 282.631 117.458336 280.97415C117.458336 279.31732 118.801476 277.97415 120.458336 277.97415C122.11519 277.97415 123.458336 279.31732 123.458336 280.97415Z" fill-rule="nonzero"/><path fill="#000000" fill-opacity="0.0" clip-path="url(#id_0)" d="M207.275 268.715C207.275 270.37186 205.93185 271.715 204.275 271.715C202.61815 271.715 201.275 270.37186 201.275 268.715C201.275 267.05814 202.61815 265.715 204.275 265.715C205.93185 265.715 207.275 267.05814 207.275 268.715Z" fill-rule="nonzero"/><path fill="#000000" fill-opacity="0.0" clip-path="url(#id_0)" d="M291.09167 276.80084C291.09167 278.4577 289.74854 279.80084 288.09167 279.80084C286.4348 279.80084 285.09167 278.4577 285.09167 276.80084C285.09167 275.14398 286.4348 273.80084 288.09167 273.80084C289.74854 273.80084 291.09167 275.14398 291.09167 276.80084Z" fill-rule="nonzero"/><path fill="#000000" fill-opacity="0.0" clip-path="url(#id_0)" d="M374.90833 281.235C374.90833 282.89185 373.5652 284.235 371.90833 284.235C370.25146 284.235 368.90833 282.89185 368.90833 281.235C368.90833 279.57816 370.25146 278.235 371.90833 278.235C373.5652 278.235 374.90833 279.57816 374.90833 281.235Z" fill-rule="nonzero"/><path fill="#000000" fill-opacity="0.0" clip-path="url(#id_0)" d="M458.725 280.97415C458.725 282.631 457.38187 283.97415 455.725 283.97415C454.06815 283.97415 452.725 282.631 452.725 280.97415C452.725 279.31732 454.06815 277.97415 455.725 277.97415C457.38187 277.97415 458.725 279.31732 458.725 280.97415Z" fill-rule="nonzero"/><path fill="#000000" fill-opacity="0.0" clip-path="url(#id_0)" d="M542.5417 277.84418C542.5417 279.501 541.19855 280.84418 539.5417 280.84418C537.8848 280.84418 536.5417 279.501 536.5417 277.84418C536.5417 276.18732 537.8848 274.84418 539.5417 274.84418C541.19855 274.84418 542.5417 276.18732 542.5417 277.84418Z" fill-rule="nonzero"/><path fill="#424242" d="M314.9375 340.91876L317.73438 347.8719L320.51562 340.91876L321.98438 340.91876L321.98438 349.45L320.85938 349.45L320.85938 346.1219L320.96875 342.54376L318.15625 349.45L317.29688 349.45L314.5 342.5594L314.60938 346.1219L314.60938 349.45L313.48438 349.45L313.48438 340.91876L314.9375 340.91876ZM323.03125 346.21564Q323.03125 345.29376 323.39062 344.54376Q323.76562 343.79376 324.42188 343.40314Q325.07812 342.9969 325.90625 342.9969Q327.20312 342.9969 328.0 343.8875Q328.8125 344.77814 328.8125 346.27814L328.8125 346.35626Q328.8125 347.27814 328.45312 348.0125Q328.09375 348.7469 327.4375 349.16876Q326.78125 349.575 325.92188 349.575Q324.64062 349.575 323.82812 348.6844Q323.03125 347.77814 323.03125 346.29376L323.03125 346.21564ZM324.125 346.35626Q324.125 347.40314 324.60938 348.04376Q325.10938 348.6844 325.92188 348.6844Q326.75 348.6844 327.23438 348.04376Q327.71875 347.3875 327.71875 346.21564Q327.71875 345.1844 327.21875 344.54376Q326.73438 343.8875 325.90625 343.8875Q325.10938 343.8875 324.60938 344.52814Q324.125 345.15314 324.125 346.35626ZM331.34375 343.10626L331.375 343.90314Q332.10938 342.9969 333.28125 342.9969Q335.29688 342.9969 335.3125 345.2625L335.3125 349.45L334.21875 349.45L334.21875 345.2469Q334.21875 344.575 333.90625 344.2469Q333.60938 343.91876 332.95312 343.91876Q332.42188 343.91876 332.01562 344.2Q331.625 344.48126 331.40625 344.9344L331.40625 349.45L330.32812 349.45L330.32812 343.10626L331.34375 343.10626ZM338.79688 341.575L338.79688 343.10626L339.96875 343.10626L339.96875 343.95L338.79688 343.95L338.79688 347.8719Q338.79688 348.2625 338.95312 348.45Q339.10938 348.6375 339.48438 348.6375Q339.67188 348.6375 340.0 348.575L340.0 349.45Q339.57812 349.575 339.17188 349.575Q338.45312 349.575 338.07812 349.1375Q337.70312 348.6844 337.70312 347.8719L337.70312 343.95L336.54688 343.95L336.54688 343.10626L337.70312 343.10626L337.70312 341.575L338.79688 341.575ZM342.40625 343.8719Q343.125 342.9969 344.28125 342.9969Q346.29688 342.9969 346.3125 345.2625L346.3125 349.45L345.21875 349.45L345.21875 345.2469Q345.21875 344.575 344.90625 344.2469Q344.60938 343.91876 343.95312 343.91876Q343.42188 343.91876 343.01562 344.2Q342.625 344.48126 342.40625 344.9344L342.40625 349.45L341.32812 349.45L341.32812 340.45L342.40625 340.45L342.40625 343.8719Z" fill-rule="nonzero"/><path fill="#424242" d="M26.753138 292.86667Q26.331263 294.30417 25.721888 294.97604Q25.112513 295.6323 24.221888 295.6323Q23.221888 295.6323 22.565638 294.83542Q21.893763 294.02292 21.893763 292.72604Q21.893763 291.85104 22.237513 291.16354Q22.581263 290.47604 23.175013 290.10104Q23.768763 289.71042 24.487513 289.71042L24.487513 290.85104Q23.706263 290.85104 23.268763 291.35104Q22.831263 291.83542 22.831263 292.72604Q22.831263 293.55417 23.206263 294.02292Q23.565638 294.49167 24.206263 294.49167Q24.737513 294.49167 25.096888 294.05417Q25.456263 293.60104 25.753138 292.53854Q26.050013 291.47604 26.409388 290.8823Q26.768763 290.27292 27.253138 289.99167Q27.737513 289.6948 28.378138 289.6948Q29.425013 289.6948 30.050013 290.5073Q30.675013 291.3198 30.675013 292.66354Q30.675013 293.55417 30.331263 294.3198Q29.987513 295.0698 29.409388 295.49167Q28.815638 295.89792 28.081263 295.89792L28.081263 294.77292Q28.846888 294.77292 29.300013 294.1948Q29.753138 293.61667 29.753138 292.66354Q29.753138 291.77292 29.393763 291.30417Q29.018763 290.83542 28.393763 290.83542Q27.768763 290.83542 27.425013 291.27292Q27.081263 291.71042 26.753138 292.86667ZM22.675013 287.0698L24.206263 287.0698L24.206263 285.89792L25.050013 285.89792L25.050013 287.0698L28.971888 287.0698Q29.362513 287.0698 29.550013 286.91354Q29.737513 286.7573 29.737513 286.3823Q29.737513 286.1948 29.675013 285.86667L30.550013 285.86667Q30.675013 286.28854 30.675013 286.6948Q30.675013 287.41354 30.237513 287.78854Q29.784388 288.16354 28.971888 288.16354L25.050013 288.16354L25.050013 289.3198L24.206263 289.3198L24.206263 288.16354L22.675013 288.16354L22.675013 287.0698ZM27.315638 284.83542Q26.393763 284.83542 25.643763 284.47604Q24.893763 284.10104 24.503138 283.4448Q24.096888 282.78854 24.096888 281.96042Q24.096888 280.66354 24.987513 279.86667Q25.878138 279.05417 27.378138 279.05417L27.456263 279.05417Q28.378138 279.05417 29.112513 279.41354Q29.846888 279.77292 30.268763 280.42917Q30.675013 281.08542 30.675013 281.9448Q30.675013 283.22604 29.784388 284.03854Q28.878138 284.83542 27.393763 284.83542L27.315638 284.83542ZM27.456263 283.74167Q28.503138 283.74167 29.143763 283.2573Q29.784388 282.7573 29.784388 281.9448Q29.784388 281.11667 29.143763 280.6323Q28.487513 280.14792 27.315638 280.14792Q26.284388 280.14792 25.643763 280.64792Q24.987513 281.1323 24.987513 281.96042Q24.987513 282.7573 25.628138 283.2573Q26.253138 283.74167 27.456263 283.74167ZM25.175013 274.47604Q25.143763 274.72604 25.143763 275.0073Q25.143763 276.08542 26.050013 276.46042L30.550013 276.46042L30.550013 277.53854L24.206263 277.53854L24.206263 276.49167L24.940638 276.47604Q24.096888 275.9448 24.096888 274.96042Q24.096888 274.64792 24.175013 274.47604L25.175013 274.47604ZM30.550013 272.36667L30.550013 273.4448L24.206263 273.4448L24.206263 272.36667L30.550013 272.36667ZM22.534388 273.53854Q22.268763 273.53854 22.081263 273.3823Q21.893763 273.21042 21.893763 272.89792Q21.893763 272.58542 22.081263 272.42917Q22.268763 272.2573 22.534388 272.2573Q22.784388 272.2573 22.971888 272.42917Q23.143763 272.58542 23.143763 272.89792Q23.143763 273.21042 22.971888 273.3823Q22.784388 273.53854 22.534388 273.53854ZM30.675013 267.91354Q30.675013 269.21042 29.831263 270.02292Q28.971888 270.8198 27.550013 270.8198L27.362513 270.8198Q26.409388 270.8198 25.675013 270.46042Q24.925013 270.10104 24.518763 269.46042Q24.096888 268.80417 24.096888 268.05417Q24.096888 266.8198 24.909388 266.1323Q25.721888 265.4448 27.237513 265.4448L27.690638 265.4448L27.690638 269.74167Q28.628138 269.71042 29.206263 269.1948Q29.784388 268.66354 29.784388 267.85104Q29.784388 267.28854 29.550013 266.89792Q29.315638 266.49167 28.925013 266.17917L29.440638 265.52292Q30.675013 266.3198 30.675013 267.91354ZM24.987513 268.05417Q24.987513 268.71042 25.471888 269.16354Q25.940638 269.60104 26.800013 269.6948L26.800013 266.52292L26.721888 266.52292Q25.893763 266.5698 25.440638 266.97604Q24.987513 267.36667 24.987513 268.05417ZM28.862513 260.85104Q28.425013 260.85104 28.190638 261.1948Q27.940638 261.52292 27.768763 262.35104Q27.596888 263.16354 27.346888 263.64792Q27.096888 264.1323 26.768763 264.36667Q26.425013 264.58542 25.956263 264.58542Q25.175013 264.58542 24.643763 263.92917Q24.096888 263.27292 24.096888 262.24167Q24.096888 261.16354 24.659388 260.5073Q25.206263 259.83542 26.065638 259.83542L26.065638 260.91354Q25.628138 260.91354 25.315638 261.30417Q24.987513 261.67917 24.987513 262.24167Q24.987513 262.83542 25.253138 263.17917Q25.503138 263.5073 25.909388 263.5073Q26.300013 263.5073 26.503138 263.1948Q26.706263 262.8823 26.893763 262.0698Q27.065638 261.2573 27.315638 260.7573Q27.565638 260.2573 27.925013 260.02292Q28.284388 259.77292 28.784388 259.77292Q29.643763 259.77292 30.159388 260.46042Q30.675013 261.1323 30.675013 262.21042Q30.675013 262.97604 30.409388 263.5698Q30.128138 264.14792 29.643763 264.47604Q29.159388 264.80417 28.596888 264.80417L28.596888 263.72604Q29.143763 263.6948 29.471888 263.28854Q29.784388 262.8823 29.784388 262.21042Q29.784388 261.60104 29.534388 261.22604Q29.284388 260.85104 28.862513 260.85104ZM27.456263 250.1948Q28.893763 250.1948 29.784388 250.85104Q30.675013 251.5073 30.675013 252.64792Q30.675013 253.80417 29.940638 254.46042L32.98751 254.46042L32.98751 255.53854L24.206263 255.53854L24.206263 254.55417L24.909388 254.5073Q24.096888 253.83542 24.096888 252.66354Q24.096888 251.52292 24.956263 250.86667Q25.815638 250.1948 27.346888 250.1948L27.456263 250.1948ZM27.331263 251.27292Q26.253138 251.27292 25.643763 251.74167Q25.018763 252.1948 25.018763 252.99167Q25.018763 253.97604 25.878138 254.46042L28.909388 254.46042Q29.784388 253.97604 29.784388 252.97604Q29.784388 252.1948 29.175013 251.74167Q28.550013 251.27292 27.331263 251.27292ZM30.675013 245.91354Q30.675013 247.21042 29.831263 248.02292Q28.971888 248.8198 27.550013 248.8198L27.362513 248.8198Q26.409388 248.8198 25.675013 248.46042Q24.925013 248.10104 24.518763 247.46042Q24.096888 246.80417 24.096888 246.05417Q24.096888 244.8198 24.909388 244.1323Q25.721888 243.4448 27.237513 243.4448L27.690638 243.4448L27.690638 247.74167Q28.628138 247.71042 29.206263 247.1948Q29.784388 246.66354 29.784388 245.85104Q29.784388 245.28854 29.550013 244.89792Q29.315638 244.49167 28.925013 244.17917L29.440638 243.52292Q30.675013 244.3198 30.675013 245.91354ZM24.987513 246.05417Q24.987513 246.71042 25.471888 247.16354Q25.940638 247.60104 26.800013 247.6948L26.800013 244.52292L26.721888 244.52292Q25.893763 244.5698 25.440638 244.97604Q24.987513 245.36667 24.987513 246.05417ZM25.175013 239.47604Q25.143763 239.72604 25.143763 240.0073Q25.143763 241.08542 26.050013 241.46042L30.550013 241.46042L30.550013 242.53854L24.206263 242.53854L24.206263 241.49167L24.940638 241.47604Q24.096888 240.9448 24.096888 239.96042Q24.096888 239.64792 24.175013 239.47604L25.175013 239.47604ZM30.550013 235.3823L22.018763 235.3823L22.018763 232.96042Q22.018763 231.85104 22.518763 231.0073Q23.003138 230.14792 23.909388 229.67917Q24.815638 229.21042 26.003138 229.21042L26.534388 229.21042Q27.753138 229.21042 28.659388 229.67917Q29.565638 230.1323 30.050013 231.0073Q30.534388 231.86667 30.550013 233.0073L30.550013 235.3823ZM22.940638 234.2573L29.628138 234.2573L29.628138 233.0698Q29.628138 231.77292 28.831263 231.05417Q28.018763 230.3198 26.518763 230.3198L26.018763 230.3198Q24.565638 230.3198 23.768763 231.0073Q22.956263 231.67917 22.940638 232.9448L22.940638 234.2573ZM30.550013 223.6323Q30.362513 223.72604 29.878138 223.78854Q30.675013 224.53854 30.675013 225.58542Q30.675013 226.52292 30.143763 227.1323Q29.612513 227.72604 28.784388 227.72604Q27.800013 227.72604 27.253138 226.97604Q26.706263 226.22604 26.706263 224.85104L26.706263 223.80417L26.206263 223.80417Q25.643763 223.80417 25.315638 224.14792Q24.971888 224.47604 24.971888 225.14792Q24.971888 225.72604 25.268763 226.11667Q25.550013 226.5073 25.971888 226.5073L25.971888 227.60104Q25.487513 227.60104 25.050013 227.27292Q24.612513 226.92917 24.362513 226.35104Q24.096888 225.77292 24.096888 225.08542Q24.096888 223.97604 24.643763 223.36667Q25.190638 222.74167 26.143763 222.71042L29.065638 222.71042Q29.940638 222.71042 30.456263 222.49167L30.550013 222.49167L30.550013 223.6323ZM29.721888 225.42917Q29.721888 224.91354 29.456263 224.46042Q29.190638 224.0073 28.768763 223.80417L27.471888 223.80417L27.471888 224.64792Q27.471888 226.64792 28.643763 226.64792Q29.143763 226.64792 29.440638 226.30417Q29.721888 225.96042 29.721888 225.42917ZM28.956263 218.47604L24.206263 216.99167L24.206263 215.83542L31.534388 218.3823Q33.11251 218.97604 33.11251 220.2573L33.096886 220.47604L33.01876 220.86667L32.14376 220.86667L32.159386 220.58542Q32.159386 220.02292 31.940638 219.72604Q31.721888 219.41354 31.128138 219.21042L30.471888 218.97604L24.206263 221.24167L24.206263 220.05417L28.956263 218.47604ZM32.128136 210.46042L32.128136 211.33542L22.018763 211.33542L22.018763 210.46042L32.128136 210.46042ZM30.550013 198.8198L30.550013 199.9448L23.971888 204.24167L30.550013 204.24167L30.550013 205.3823L22.018763 205.3823L22.018763 204.24167L28.628138 199.9448L22.018763 199.9448L22.018763 198.8198L30.550013 198.8198ZM29.925013 192.6323Q30.675013 193.2573 30.675013 194.49167Q30.675013 195.5073 30.081263 196.03854Q29.487513 196.5698 28.331263 196.5698L24.206263 196.5698L24.206263 195.49167L28.300013 195.49167Q29.753138 195.49167 29.753138 194.3198Q29.753138 193.0698 28.815638 192.66354L24.206263 192.66354L24.206263 191.5698L30.550013 191.5698L30.550013 192.60104L29.925013 192.6323ZM24.206263 188.52292L24.909388 188.49167Q24.096888 187.80417 24.096888 186.61667Q24.096888 185.28854 25.112513 184.80417Q24.659388 184.49167 24.378138 183.99167Q24.096888 183.47604 24.096888 182.78854Q24.096888 180.6948 26.300013 180.66354L30.550013 180.66354L30.550013 181.74167L26.362513 181.74167Q25.690638 181.74167 25.362513 182.05417Q25.018763 182.36667 25.018763 183.10104Q25.018763 183.71042 25.378138 184.11667Q25.737513 184.5073 26.346888 184.5698L30.550013 184.5698L30.550013 185.64792L26.393763 185.64792Q25.018763 185.64792 25.018763 187.0073Q25.018763 188.0698 25.925013 188.46042L30.550013 188.46042L30.550013 189.55417L24.206263 189.55417L24.206263 188.52292ZM27.456263 173.17917Q28.909388 173.17917 29.800013 173.85104Q30.675013 174.5073 30.675013 175.6323Q30.675013 176.83542 29.815638 177.49167L30.550013 177.55417L30.550013 178.53854L21.550013 178.53854L21.550013 177.46042L24.909388 177.46042Q24.096888 176.80417 24.096888 175.64792Q24.096888 174.49167 24.971888 173.83542Q25.831263 173.17917 27.362513 173.17917L27.456263 173.17917ZM27.331263 174.2573Q26.221888 174.2573 25.628138 174.6948Q25.018763 175.11667 25.018763 175.91354Q25.018763 176.99167 26.003138 177.46042L28.753138 177.46042Q29.753138 176.96042 29.753138 175.91354Q29.753138 175.1323 29.143763 174.6948Q28.534388 174.2573 27.331263 174.2573ZM30.675013 168.91354Q30.675013 170.21042 29.831263 171.02292Q28.971888 171.8198 27.550013 171.8198L27.362513 171.8198Q26.409388 171.8198 25.675013 171.46042Q24.925013 171.10104 24.518763 170.46042Q24.096888 169.80417 24.096888 169.05417Q24.096888 167.8198 24.909388 167.1323Q25.721888 166.4448 27.237513 166.4448L27.690638 166.4448L27.690638 170.74167Q28.628138 170.71042 29.206263 170.1948Q29.784388 169.66354 29.784388 168.85104Q29.784388 168.28854 29.550013 167.89792Q29.315638 167.49167 28.925013 167.17917L29.440638 166.52292Q30.675013 167.3198 30.675013 168.91354ZM24.987513 169.05417Q24.987513 169.71042 25.471888 170.16354Q25.940638 170.60104 26.800013 170.6948L26.800013 167.52292L26.721888 167.52292Q25.893763 167.5698 25.440638 167.97604Q24.987513 168.36667 24.987513 169.05417ZM25.175013 162.47604Q25.143763 162.72604 25.143763 163.0073Q25.143763 164.08542 26.050013 164.46042L30.550013 164.46042L30.550013 165.53854L24.206263 165.53854L24.206263 164.49167L24.940638 164.47604Q24.096888 163.9448 24.096888 162.96042Q24.096888 162.64792 24.175013 162.47604L25.175013 162.47604ZM27.315638 158.83542Q26.393763 158.83542 25.643763 158.47604Q24.893763 158.10104 24.503138 157.4448Q24.096888 156.78854 24.096888 155.96042Q24.096888 154.66354 24.987513 153.86667Q25.878138 153.05417 27.378138 153.05417L27.456263 153.05417Q28.378138 153.05417 29.112513 153.41354Q29.846888 153.77292 30.268763 154.42917Q30.675013 155.08542 30.675013 155.9448Q30.675013 157.22604 29.784388 158.03854Q28.878138 158.83542 27.393763 158.83542L27.315638 158.83542ZM27.456263 157.74167Q28.503138 157.74167 29.143763 157.2573Q29.784388 156.7573 29.784388 155.9448Q29.784388 155.11667 29.143763 154.6323Q28.487513 154.14792 27.315638 154.14792Q26.284388 154.14792 25.643763 154.64792Q24.987513 155.1323 24.987513 155.96042Q24.987513 156.7573 25.628138 157.2573Q26.253138 157.74167 27.456263 157.74167ZM30.550013 151.0073L25.050013 151.0073L25.050013 152.0073L24.206263 152.0073L24.206263 151.0073L23.565638 151.0073Q22.534388 151.0073 21.987513 150.47604Q21.425013 149.92917 21.425013 148.92917Q21.425013 148.55417 21.518763 148.17917L22.409388 148.24167Q22.346888 148.52292 22.346888 148.8198Q22.346888 149.35104 22.659388 149.64792Q22.971888 149.92917 23.534388 149.92917L24.206263 149.92917L24.206263 148.5698L25.050013 148.5698L25.050013 149.92917L30.550013 149.92917L30.550013 151.0073ZM30.550013 144.3823L22.018763 144.3823L22.018763 141.96042Q22.018763 140.85104 22.518763 140.0073Q23.003138 139.14792 23.909388 138.67917Q24.815638 138.21042 26.003138 138.21042L26.534388 138.21042Q27.753138 138.21042 28.659388 138.67917Q29.565638 139.1323 30.050013 140.0073Q30.534388 140.86667 30.550013 142.0073L30.550013 144.3823ZM22.940638 143.2573L29.628138 143.2573L29.628138 142.0698Q29.628138 140.77292 28.831263 140.05417Q28.018763 139.3198 26.518763 139.3198L26.018763 139.3198Q24.565638 139.3198 23.768763 140.0073Q22.956263 140.67917 22.940638 141.9448L22.940638 143.2573ZM30.675013 133.91354Q30.675013 135.21042 29.831263 136.02292Q28.971888 136.8198 27.550013 136.8198L27.362513 136.8198Q26.409388 136.8198 25.675013 136.46042Q24.925013 136.10104 24.518763 135.46042Q24.096888 134.80417 24.096888 134.05417Q24.096888 132.8198 24.909388 132.1323Q25.721888 131.4448 27.237513 131.4448L27.690638 131.4448L27.690638 135.74167Q28.628138 135.71042 29.206263 135.1948Q29.784388 134.66354 29.784388 133.85104Q29.784388 133.28854 29.550013 132.89792Q29.315638 132.49167 28.925013 132.17917L29.440638 131.52292Q30.675013 132.3198 30.675013 133.91354ZM24.987513 134.05417Q24.987513 134.71042 25.471888 135.16354Q25.940638 135.60104 26.800013 135.6948L26.800013 132.52292L26.721888 132.52292Q25.893763 132.5698 25.440638 132.97604Q24.987513 133.36667 24.987513 134.05417ZM30.550013 130.0073L25.050013 130.0073L25.050013 131.0073L24.206263 131.0073L24.206263 130.0073L23.565638 130.0073Q22.534388 130.0073 21.987513 129.47604Q21.425013 128.92917 21.425013 127.92917Q21.425013 127.55417 21.518763 127.17917L22.409388 127.24167Q22.346888 127.52292 22.346888 127.81979Q22.346888 128.35104 22.659388 128.64792Q22.971888 128.92917 23.534388 128.92917L24.206263 128.92917L24.206263 127.56979L25.050013 127.56979L25.050013 128.92917L30.550013 128.92917L30.550013 130.0073ZM30.675013 123.91354Q30.675013 125.21042 29.831263 126.02292Q28.971888 126.81979 27.550013 126.81979L27.362513 126.81979Q26.409388 126.81979 25.675013 126.46042Q24.925013 126.10104 24.518763 125.46042Q24.096888 124.80417 24.096888 124.05417Q24.096888 122.81979 24.909388 122.13229Q25.721888 121.44479 27.237513 121.44479L27.690638 121.44479L27.690638 125.74167Q28.628138 125.71042 29.206263 125.19479Q29.784388 124.66354 29.784388 123.85104Q29.784388 123.28854 29.550013 122.89792Q29.315638 122.49167 28.925013 122.17917L29.440638 121.52292Q30.675013 122.31979 30.675013 123.91354ZM24.987513 124.05417Q24.987513 124.71042 25.471888 125.16354Q25.940638 125.60104 26.800013 125.69479L26.800013 122.52292L26.721888 122.52292Q25.893763 122.56979 25.440638 122.97604Q24.987513 123.36667 24.987513 124.05417ZM29.784388 118.00729Q29.784388 117.42917 29.440638 116.99167Q29.081263 116.55417 28.550013 116.50729L28.550013 115.47604Q29.096888 115.50729 29.596888 115.86667Q30.081263 116.21042 30.378138 116.78854Q30.675013 117.35104 30.675013 118.00729Q30.675013 119.30417 29.815638 120.06979Q28.940638 120.81979 27.440638 120.81979L27.253138 120.81979Q26.331263 120.81979 25.612513 120.49167Q24.893763 120.14792 24.503138 119.52292Q24.096888 118.88229 24.096888 118.00729Q24.096888 116.94479 24.737513 116.24167Q25.362513 115.52292 26.393763 115.47604L26.393763 116.50729Q25.768763 116.55417 25.378138 116.97604Q24.987513 117.39792 24.987513 118.00729Q24.987513 118.83542 25.581263 119.28854Q26.175013 119.74167 27.300013 119.74167L27.503138 119.74167Q28.596888 119.74167 29.190638 119.28854Q29.784388 118.83542 29.784388 118.00729ZM22.675013 113.06979L24.206263 113.06979L24.206263 111.89792L25.050013 111.89792L25.050013 113.06979L28.971888 113.06979Q29.362513 113.06979 29.550013 112.91354Q29.737513 112.75729 29.737513 112.38229Q29.737513 112.19479 29.675013 111.86667L30.550013 111.86667Q30.675013 112.28854 30.675013 112.69479Q30.675013 113.41354 30.237513 113.78854Q29.784388 114.16354 28.971888 114.16354L25.050013 114.16354L25.050013 115.31979L24.206263 115.31979L24.206263 114.16354L22.675013 114.16354L22.675013 113.06979ZM28.862513 106.85104Q28.425013 106.85104 28.190638 107.19479Q27.940638 107.52292 27.768763 108.35104Q27.596888 109.16354 27.346888 109.64792Q27.096888 110.13229 26.768763 110.36667Q26.425013 110.58542 25.956263 110.58542Q25.175013 110.58542 24.643763 109.92917Q24.096888 109.27292 24.096888 108.24167Q24.096888 107.16354 24.659388 106.50729Q25.206263 105.83542 26.065638 105.83542L26.065638 106.91354Q25.628138 106.91354 25.315638 107.30417Q24.987513 107.67917 24.987513 108.24167Q24.987513 108.83542 25.253138 109.17917Q25.503138 109.50729 25.909388 109.50729Q26.300013 109.50729 26.503138 109.19479Q26.706263 108.88229 26.893763 108.06979Q27.065638 107.25729 27.315638 106.75729Q27.565638 106.25729 27.925013 106.02292Q28.284388 105.77292 28.784388 105.77292Q29.643763 105.77292 30.159388 106.46042Q30.675013 107.13229 30.675013 108.21042Q30.675013 108.97604 30.409388 109.56979Q30.128138 110.14792 29.643763 110.47604Q29.159388 110.80417 28.596888 110.80417L28.596888 109.72604Q29.143763 109.69479 29.471888 109.28854Q29.784388 108.88229 29.784388 108.21042Q29.784388 107.60104 29.534388 107.22604Q29.284388 106.85104 28.862513 106.85104Z" fill-rule="nonzero"/><path fill="#757575" d="M71.6125 299.3094Q71.6125 301.21564 70.95625 302.15314Q70.31563 303.075 68.925 303.075Q67.56563 303.075 66.90938 302.16876Q66.25313 301.2625 66.22188 299.45L66.22188 298.0125Q66.22188 296.1219 66.8625 295.21564Q67.51875 294.29376 68.90938 294.29376Q70.28438 294.29376 70.94063 295.1844Q71.59688 296.0594 71.6125 297.90314L71.6125 299.3094ZM70.51875 297.825Q70.51875 296.45 70.12813 295.825Q69.75313 295.1844 68.90938 295.1844Q68.08125 295.1844 67.69063 295.825Q67.31563 296.45 67.31563 297.7469L67.31563 299.48126Q67.31563 300.85626 67.70625 301.52814Q68.1125 302.1844 68.925 302.1844Q69.72188 302.1844 70.1125 301.5594Q70.50313 300.9344 70.51875 299.60626L70.51875 297.825Z" fill-rule="nonzero"/><path fill="#757575" d="M71.84688 250.78334L66.25313 250.78334L66.25313 250.00209L69.20625 246.72084Q69.8625 245.97084 70.1125 245.51772Q70.3625 245.04897 70.3625 244.54897Q70.3625 243.87709 69.95625 243.45522Q69.56563 243.01772 68.87813 243.01772Q68.08125 243.01772 67.62813 243.48647Q67.175 243.93959 67.175 244.76772L66.09688 244.76772Q66.09688 243.58022 66.84688 242.86147Q67.6125 242.12709 68.87813 242.12709Q70.08125 242.12709 70.76875 242.75209Q71.45625 243.37709 71.45625 244.42397Q71.45625 245.67397 69.84688 247.42397L67.56563 249.89272L71.84688 249.89272L71.84688 250.78334Z" fill-rule="nonzero"/><path fill="#757575" d="M70.83125 195.7573L72.01875 195.7573L72.01875 196.6323L70.83125 196.6323L70.83125 198.61667L69.75313 198.61667L69.75313 196.6323L65.8625 196.6323L65.8625 195.99167L69.675 190.08542L70.83125 190.08542L70.83125 195.7573ZM67.09688 195.7573L69.75313 195.7573L69.75313 191.5698L69.6125 191.80417L67.09688 195.7573Z" fill-rule="nonzero"/><path fill="#757575" d="M70.51875 137.91875L70.51875 138.825L70.31563 138.825Q69.05 138.85625 68.3 139.59062Q67.55 140.30937 67.425 141.62187Q68.1125 140.85625 69.26875 140.85625Q70.37813 140.85625 71.05 141.6375Q71.72188 142.41875 71.72188 143.66875Q71.72188 144.98125 71.00313 145.77812Q70.28438 146.575 69.06563 146.575Q67.84688 146.575 67.08125 145.6375Q66.33125 144.68437 66.33125 143.2L66.33125 142.79375Q66.33125 140.43437 67.33125 139.18437Q68.33125 137.93437 70.31563 137.91875L70.51875 137.91875ZM69.09688 141.7625Q68.53438 141.7625 68.06563 142.09062Q67.59688 142.41875 67.40938 142.93437L67.40938 143.325Q67.40938 144.3875 67.87813 145.02812Q68.3625 145.66875 69.06563 145.66875Q69.8 145.66875 70.22188 145.1375Q70.64375 144.59062 70.64375 143.71562Q70.64375 142.84062 70.22188 142.30937Q69.8 141.7625 69.09688 141.7625Z" fill-rule="nonzero"/><path fill="#757575" d="M71.44063 87.97083Q71.44063 88.61146 71.09688 89.11146Q70.75313 89.61146 70.19063 89.89271Q70.84688 90.17396 71.2375 90.73646Q71.62813 91.28333 71.62813 91.98646Q71.62813 93.08021 70.87813 93.75208Q70.14375 94.40833 68.925 94.40833Q67.69063 94.40833 66.94063 93.75208Q66.20625 93.08021 66.20625 91.98646Q66.20625 91.28333 66.58125 90.73646Q66.95625 90.17396 67.62813 89.89271Q67.06563 89.61146 66.7375 89.11146Q66.40938 88.61146 66.40938 87.97083Q66.40938 86.89271 67.09688 86.26771Q67.78438 85.62708 68.925 85.62708Q70.05 85.62708 70.7375 86.26771Q71.44063 86.89271 71.44063 87.97083ZM70.55 91.95521Q70.55 91.23646 70.09688 90.79896Q69.64375 90.34583 68.90938 90.34583Q68.175 90.34583 67.72188 90.79896Q67.28438 91.23646 67.28438 91.97083Q67.28438 92.68958 67.72188 93.11146Q68.15938 93.51771 68.925 93.51771Q69.675 93.51771 70.1125 93.09583Q70.55 92.67396 70.55 91.95521ZM68.925 86.51771Q68.28438 86.51771 67.87813 86.92396Q67.4875 87.31458 67.4875 88.00208Q67.4875 88.64271 67.87813 89.04896Q68.26875 89.45521 68.90938 89.45521Q69.56563 89.45521 69.95625 89.04896Q70.34688 88.64271 70.34688 88.00208Q70.34688 87.34583 69.94063 86.93958Q69.53438 86.51771 68.925 86.51771Z" fill-rule="nonzero"/><path fill="#757575" d="M115.16146 314.21564L111.583336 314.21564L110.78646 316.45L109.63021 316.45L112.88021 307.91876L113.864586 307.91876L117.13021 316.45L115.97396 316.45L115.16146 314.21564ZM111.927086 313.29376L114.833336 313.29376L113.38021 309.3094L111.927086 313.29376ZM122.19271 315.825Q121.56771 316.575 120.333336 316.575Q119.31771 316.575 118.78646 315.98126Q118.25521 315.3875 118.25521 314.23126L118.25521 310.10626L119.333336 310.10626L119.333336 314.2Q119.333336 315.65314 120.50521 315.65314Q121.75521 315.65314 122.16146 314.71564L122.16146 310.10626L123.25521 310.10626L123.25521 316.45L122.22396 316.45L122.19271 315.825ZM125.020836 313.23126Q125.020836 311.7469 125.708336 310.8719Q126.395836 309.9969 127.520836 309.9969Q128.6771 309.9969 129.33334 310.8094L129.38022 310.10626L130.38022 310.10626L130.38022 316.29376Q130.38022 317.52814 129.64584 318.23126Q128.91147 318.95 127.69271 318.95Q127.00521 318.95 126.34896 318.65314Q125.69271 318.35626 125.34896 317.85626L125.91146 317.2Q126.59896 318.0594 127.614586 318.0594Q128.39584 318.0594 128.83334 317.60626Q129.28647 317.16876 129.28647 316.35626L129.28647 315.8094Q128.63022 316.575 127.50521 316.575Q126.395836 316.575 125.708336 315.6844Q125.020836 314.77814 125.020836 313.23126ZM126.114586 313.35626Q126.114586 314.41876 126.552086 315.04376Q126.989586 315.65314 127.78646 315.65314Q128.8021 315.65314 129.28647 314.71564L129.28647 311.825Q128.78647 310.91876 127.78646 310.91876Q127.00521 310.91876 126.552086 311.52814Q126.114586 312.1375 126.114586 313.35626Z" fill-rule="nonzero"/><path fill="#757575" d="M197.775 312.65314Q196.3375 312.23126 195.66562 311.6219Q195.00937 311.0125 195.00937 310.1219Q195.00937 309.1219 195.80624 308.46564Q196.61874 307.79376 197.91562 307.79376Q198.79062 307.79376 199.47812 308.1375Q200.16562 308.48126 200.54062 309.075Q200.93124 309.66876 200.93124 310.3875L199.79062 310.3875Q199.79062 309.60626 199.29062 309.16876Q198.80624 308.73126 197.91562 308.73126Q197.0875 308.73126 196.61874 309.10626Q196.15 309.46564 196.15 310.10626Q196.15 310.6375 196.5875 310.9969Q197.04062 311.35626 198.10312 311.65314Q199.16562 311.95 199.75937 312.3094Q200.36874 312.66876 200.65 313.15314Q200.94687 313.6375 200.94687 314.27814Q200.94687 315.325 200.13437 315.95Q199.32187 316.575 197.97812 316.575Q197.0875 316.575 196.32187 316.23126Q195.57187 315.8875 195.15 315.3094Q194.74374 314.71564 194.74374 313.98126L195.86874 313.98126Q195.86874 314.7469 196.44687 315.2Q197.025 315.65314 197.97812 315.65314Q198.86874 315.65314 199.3375 315.29376Q199.80624 314.91876 199.80624 314.29376Q199.80624 313.66876 199.36874 313.325Q198.93124 312.98126 197.775 312.65314ZM204.72812 316.575Q203.43124 316.575 202.61874 315.73126Q201.82187 314.8719 201.82187 313.45L201.82187 313.2625Q201.82187 312.3094 202.18124 311.575Q202.54062 310.825 203.18124 310.41876Q203.8375 309.9969 204.5875 309.9969Q205.82187 309.9969 206.50937 310.8094Q207.19687 311.6219 207.19687 313.1375L207.19687 313.59064L202.9 313.59064Q202.93124 314.52814 203.44687 315.10626Q203.97812 315.6844 204.79062 315.6844Q205.35312 315.6844 205.74374 315.45Q206.15 315.21564 206.4625 314.825L207.11874 315.34064Q206.32187 316.575 204.72812 316.575ZM204.5875 310.8875Q203.93124 310.8875 203.47812 311.3719Q203.04062 311.84064 202.94687 312.7L206.11874 312.7L206.11874 312.6219Q206.07187 311.79376 205.66562 311.34064Q205.275 310.8875 204.5875 310.8875ZM213.44687 313.35626Q213.44687 314.79376 212.79062 315.6844Q212.13437 316.575 210.99374 316.575Q209.8375 316.575 209.18124 315.84064L209.18124 318.8875L208.10312 318.8875L208.10312 310.10626L209.0875 310.10626L209.13437 310.8094Q209.80624 309.9969 210.97812 309.9969Q212.11874 309.9969 212.775 310.85626Q213.44687 311.71564 213.44687 313.2469L213.44687 313.35626ZM212.36874 313.23126Q212.36874 312.15314 211.9 311.54376Q211.44687 310.91876 210.65 310.91876Q209.66562 310.91876 209.18124 311.77814L209.18124 314.8094Q209.66562 315.6844 210.66562 315.6844Q211.44687 315.6844 211.9 315.075Q212.36874 314.45 212.36874 313.23126Z" fill-rule="nonzero"/><path fill="#757575" d="M286.63855 312.46564Q286.63855 313.71564 286.21667 314.65314Q285.7948 315.575 285.01355 316.075Q284.24792 316.575 283.21667 316.575Q282.21667 316.575 281.43542 316.075Q280.65417 315.575 280.21667 314.66876Q279.7948 313.7469 279.77917 312.52814L279.77917 311.91876Q279.77917 310.6844 280.20105 309.7469Q280.63855 308.8094 281.4198 308.3094Q282.20105 307.79376 283.21667 307.79376Q284.2323 307.79376 285.01355 308.29376Q285.7948 308.79376 286.21667 309.73126Q286.63855 310.66876 286.63855 311.91876L286.63855 312.46564ZM285.52917 311.90314Q285.52917 310.3875 284.9198 309.575Q284.31042 308.7625 283.21667 308.7625Q282.13855 308.7625 281.52917 309.575Q280.9198 310.3875 280.90417 311.825L280.90417 312.46564Q280.90417 313.9344 281.51355 314.77814Q282.13855 315.60626 283.21667 315.60626Q284.31042 315.60626 284.90417 314.825Q285.51355 314.02814 285.52917 312.54376L285.52917 311.90314ZM290.45105 315.6844Q291.02917 315.6844 291.46667 315.34064Q291.90417 314.98126 291.95105 314.45L292.9823 314.45Q292.95105 314.9969 292.59167 315.4969Q292.24792 315.98126 291.6698 316.27814Q291.1073 316.575 290.45105 316.575Q289.15417 316.575 288.38855 315.71564Q287.63855 314.84064 287.63855 313.34064L287.63855 313.15314Q287.63855 312.23126 287.96667 311.5125Q288.31042 310.79376 288.93542 310.40314Q289.57605 309.9969 290.45105 309.9969Q291.51355 309.9969 292.21667 310.6375Q292.93542 311.2625 292.9823 312.29376L291.95105 312.29376Q291.90417 311.66876 291.4823 311.27814Q291.06042 310.8875 290.45105 310.8875Q289.62292 310.8875 289.1698 311.48126Q288.71667 312.075 288.71667 313.2L288.71667 313.40314Q288.71667 314.4969 289.1698 315.09064Q289.62292 315.6844 290.45105 315.6844ZM295.38855 308.575L295.38855 310.10626L296.56042 310.10626L296.56042 310.95L295.38855 310.95L295.38855 314.8719Q295.38855 315.2625 295.5448 315.45Q295.70105 315.6375 296.07605 315.6375Q296.26355 315.6375 296.59167 315.575L296.59167 316.45Q296.1698 316.575 295.76355 316.575Q295.0448 316.575 294.6698 316.1375Q294.2948 315.6844 294.2948 314.8719L294.2948 310.95L293.13855 310.95L293.13855 310.10626L294.2948 310.10626L294.2948 308.575L295.38855 308.575Z" fill-rule="nonzero"/><path fill="#757575" d="M368.4552 316.45L367.3302 316.45L363.03333 309.8719L363.03333 316.45L361.8927 316.45L361.8927 307.91876L363.03333 307.91876L367.3302 314.52814L367.3302 307.91876L368.4552 307.91876L368.4552 316.45ZM370.43958 313.21564Q370.43958 312.29376 370.79895 311.54376Q371.17395 310.79376 371.8302 310.40314Q372.48645 309.9969 373.31458 309.9969Q374.61145 309.9969 375.40833 310.8875Q376.22083 311.77814 376.22083 313.27814L376.22083 313.35626Q376.22083 314.27814 375.86145 315.0125Q375.50208 315.7469 374.84583 316.16876Q374.18958 316.575 373.3302 316.575Q372.04895 316.575 371.23645 315.6844Q370.43958 314.77814 370.43958 313.29376L370.43958 313.21564ZM371.53333 313.35626Q371.53333 314.40314 372.0177 315.04376Q372.5177 315.6844 373.3302 315.6844Q374.15833 315.6844 374.6427 315.04376Q375.12708 314.3875 375.12708 313.21564Q375.12708 312.1844 374.62708 311.54376Q374.1427 310.8875 373.31458 310.8875Q372.5177 310.8875 372.0177 311.52814Q371.53333 312.15314 371.53333 313.35626ZM379.81458 314.98126L381.3927 310.10626L382.50208 310.10626L380.22083 316.45L379.3927 316.45L377.09583 310.10626L378.2052 310.10626L379.81458 314.98126Z" fill-rule="nonzero"/><path fill="#757575" d="M446.70938 316.45L446.70938 307.91876L449.13126 307.91876Q450.24063 307.91876 451.08438 308.41876Q451.94376 308.90314 452.4125 309.8094Q452.88126 310.71564 452.88126 311.90314L452.88126 312.4344Q452.88126 313.65314 452.4125 314.5594Q451.95938 315.46564 451.08438 315.95Q450.225 316.4344 449.08438 316.45L446.70938 316.45ZM447.83438 308.84064L447.83438 315.52814L449.02188 315.52814Q450.31876 315.52814 451.0375 314.73126Q451.77188 313.91876 451.77188 312.41876L451.77188 311.91876Q451.77188 310.46564 451.08438 309.66876Q450.4125 308.85626 449.14688 308.84064L447.83438 308.84064ZM457.17813 316.575Q455.88126 316.575 455.06876 315.73126Q454.27188 314.8719 454.27188 313.45L454.27188 313.2625Q454.27188 312.3094 454.63126 311.575Q454.99063 310.825 455.63126 310.41876Q456.2875 309.9969 457.0375 309.9969Q458.27188 309.9969 458.95938 310.8094Q459.64688 311.6219 459.64688 313.1375L459.64688 313.59064L455.35 313.59064Q455.38126 314.52814 455.89688 315.10626Q456.42813 315.6844 457.24063 315.6844Q457.80313 315.6844 458.19376 315.45Q458.6 315.21564 458.9125 314.825L459.56876 315.34064Q458.77188 316.575 457.17813 316.575ZM457.0375 310.8875Q456.38126 310.8875 455.92813 311.3719Q455.49063 311.84064 455.39688 312.7L458.56876 312.7L458.56876 312.6219Q458.52188 311.79376 458.11563 311.34064Q457.725 310.8875 457.0375 310.8875ZM463.08438 315.6844Q463.6625 315.6844 464.1 315.34064Q464.5375 314.98126 464.58438 314.45L465.61563 314.45Q465.58438 314.9969 465.225 315.4969Q464.88126 315.98126 464.30313 316.27814Q463.74063 316.575 463.08438 316.575Q461.7875 316.575 461.02188 315.71564Q460.27188 314.84064 460.27188 313.34064L460.27188 313.15314Q460.27188 312.23126 460.6 311.5125Q460.94376 310.79376 461.56876 310.40314Q462.20938 309.9969 463.08438 309.9969Q464.14688 309.9969 464.85 310.6375Q465.56876 311.2625 465.61563 312.29376L464.58438 312.29376Q464.5375 311.66876 464.11563 311.27814Q463.69376 310.8875 463.08438 310.8875Q462.25626 310.8875 461.80313 311.48126Q461.35 312.075 461.35 313.2L461.35 313.40314Q461.35 314.4969 461.80313 315.09064Q462.25626 315.6844 463.08438 315.6844Z" fill-rule="nonzero"/><path fill="#757575" d="M533.6042 307.91876L534.7448 307.91876L534.7448 313.96564Q534.7448 315.1844 533.9948 315.8875Q533.26044 316.575 532.0417 316.575Q530.77606 316.575 530.0573 315.91876Q529.3542 315.2625 529.3542 314.09064L530.4792 314.09064Q530.4792 314.825 530.8698 315.2469Q531.27606 315.65314 532.0417 315.65314Q532.7448 315.65314 533.1667 315.21564Q533.6042 314.7625 533.6042 313.98126L533.6042 307.91876ZM540.77606 316.45Q540.6823 316.2625 540.6198 315.77814Q539.8698 316.575 538.82294 316.575Q537.88544 316.575 537.27606 316.04376Q536.6823 315.5125 536.6823 314.6844Q536.6823 313.7 537.4323 313.15314Q538.1823 312.60626 539.5573 312.60626L540.6042 312.60626L540.6042 312.10626Q540.6042 311.54376 540.26044 311.21564Q539.9323 310.8719 539.26044 310.8719Q538.6823 310.8719 538.2917 311.16876Q537.90106 311.45 537.90106 311.8719L536.8073 311.8719Q536.8073 311.3875 537.13544 310.95Q537.4792 310.5125 538.0573 310.2625Q538.63544 309.9969 539.32294 309.9969Q540.4323 309.9969 541.0417 310.54376Q541.6667 311.09064 541.69794 312.04376L541.69794 314.96564Q541.69794 315.84064 541.9167 316.35626L541.9167 316.45L540.77606 316.45ZM538.9792 315.6219Q539.4948 315.6219 539.94794 315.35626Q540.40106 315.09064 540.6042 314.66876L540.6042 313.3719L539.76044 313.3719Q537.76044 313.3719 537.76044 314.54376Q537.76044 315.04376 538.1042 315.34064Q538.44794 315.6219 538.9792 315.6219ZM544.88544 310.10626L544.9167 310.90314Q545.65106 309.9969 546.82294 309.9969Q548.83856 309.9969 548.8542 312.2625L548.8542 316.45L547.76044 316.45L547.76044 312.2469Q547.76044 311.575 547.44794 311.2469Q547.15106 310.91876 546.4948 310.91876Q545.96356 310.91876 545.5573 311.2Q545.1667 311.48126 544.94794 311.9344L544.94794 316.45L543.8698 316.45L543.8698 310.10626L544.88544 310.10626Z" fill-rule="nonzero"/><path stroke="#ff0000" stroke-width="4.0" stroke-linecap="butt" d="M220.0 62.416668L232.0 62.416668" fill-rule="nonzero"/><path fill="#757575" d="M240.98438 66.916664L240.98438 58.385414L243.40625 58.385414Q244.51562 58.385414 245.35938 58.885414Q246.21875 59.36979 246.6875 60.27604Q247.15625 61.18229 247.15625 62.36979L247.15625 62.90104Q247.15625 64.11979 246.6875 65.02604Q246.23438 65.93229 245.35938 66.416664Q244.5 66.90104 243.35938 66.916664L240.98438 66.916664ZM242.10938 59.30729L242.10938 65.99479L243.29688 65.99479Q244.59375 65.99479 245.3125 65.197914Q246.04688 64.385414 246.04688 62.885414L246.04688 62.385414Q246.04688 60.93229 245.35938 60.135414Q244.6875 59.322914 243.42188 59.30729L242.10938 59.30729ZM251.45312 67.041664Q250.15625 67.041664 249.34375 66.197914Q248.54688 65.33854 248.54688 63.916664L248.54688 63.729164Q248.54688 62.77604 248.90625 62.041664Q249.26562 61.291664 249.90625 60.885414Q250.5625 60.46354 251.3125 60.46354Q252.54688 60.46354 253.23438 61.27604Q253.92188 62.08854 253.92188 63.604164L253.92188 64.05729L249.625 64.05729Q249.65625 64.99479 250.17188 65.572914Q250.70312 66.15104 251.51562 66.15104Q252.07812 66.15104 252.46875 65.916664Q252.875 65.68229 253.1875 65.291664L253.84375 65.80729Q253.04688 67.041664 251.45312 67.041664ZM251.3125 61.354164Q250.65625 61.354164 250.20312 61.83854Q249.76562 62.30729 249.67188 63.166664L252.84375 63.166664L252.84375 63.08854Q252.79688 62.260414 252.39062 61.80729Q252.0 61.354164 251.3125 61.354164ZM255.35938 66.916664L255.35938 61.416664L254.35938 61.416664L254.35938 60.572914L255.35938 60.572914L255.35938 59.93229Q255.35938 58.90104 255.89062 58.354164Q256.4375 57.791664 257.4375 57.791664Q257.8125 57.791664 258.1875 57.885414L258.125 58.77604Q257.84375 58.71354 257.54688 58.71354Q257.01562 58.71354 256.71875 59.02604Q256.4375 59.33854 256.4375 59.90104L256.4375 60.572914L257.79688 60.572914L257.79688 61.416664L256.4375 61.416664L256.4375 66.916664L255.35938 66.916664ZM261.45312 67.041664Q260.15625 67.041664 259.34375 66.197914Q258.54688 65.33854 258.54688 63.916664L258.54688 63.729164Q258.54688 62.77604 258.90625 62.041664Q259.26562 61.291664 259.90625 60.885414Q260.5625 60.46354 261.3125 60.46354Q262.54688 60.46354 263.23438 61.27604Q263.92188 62.08854 263.92188 63.604164L263.92188 64.05729L259.625 64.05729Q259.65625 64.99479 260.17188 65.572914Q260.70312 66.15104 261.51562 66.15104Q262.07812 66.15104 262.46875 65.916664Q262.875 65.68229 263.1875 65.291664L263.84375 65.80729Q263.04688 67.041664 261.45312 67.041664ZM261.3125 61.354164Q260.65625 61.354164 260.20312 61.83854Q259.76562 62.30729 259.67188 63.166664L262.84375 63.166664L262.84375 63.08854Q262.79688 62.260414 262.39062 61.80729Q262.0 61.354164 261.3125 61.354164ZM267.35938 66.15104Q267.9375 66.15104 268.375 65.80729Q268.8125 65.447914 268.85938 64.916664L269.89062 64.916664Q269.85938 65.46354 269.5 65.96354Q269.15625 66.447914 268.57812 66.74479Q268.01562 67.041664 267.35938 67.041664Q266.0625 67.041664 265.29688 66.18229Q264.54688 65.30729 264.54688 63.80729L264.54688 63.61979Q264.54688 62.697914 264.875 61.979164Q265.21875 61.260414 265.84375 60.86979Q266.48438 60.46354 267.35938 60.46354Q268.42188 60.46354 269.125 61.104164Q269.84375 61.729164 269.89062 62.760414L268.85938 62.760414Q268.8125 62.135414 268.39062 61.74479Q267.96875 61.354164 267.35938 61.354164Q266.53125 61.354164 266.07812 61.947914Q265.625 62.541664 265.625 63.666664L265.625 63.86979Q265.625 64.96354 266.07812 65.55729Q266.53125 66.15104 267.35938 66.15104ZM272.29688 59.041664L272.29688 60.572914L273.46875 60.572914L273.46875 61.416664L272.29688 61.416664L272.29688 65.33854Q272.29688 65.729164 272.45312 65.916664Q272.60938 66.104164 272.98438 66.104164Q273.17188 66.104164 273.5 66.041664L273.5 66.916664Q273.07812 67.041664 272.67188 67.041664Q271.95312 67.041664 271.57812 66.604164Q271.20312 66.15104 271.20312 65.33854L271.20312 61.416664L270.04688 61.416664L270.04688 60.572914L271.20312 60.572914L271.20312 59.041664L272.29688 59.041664ZM278.51562 65.229164Q278.51562 64.791664 278.17188 64.55729Q277.84375 64.30729 277.01562 64.135414Q276.20312 63.96354 275.71875 63.71354Q275.23438 63.46354 275.0 63.135414Q274.78125 62.791664 274.78125 62.322914Q274.78125 61.541664 275.4375 61.010414Q276.09375 60.46354 277.125 60.46354Q278.20312 60.46354 278.85938 61.02604Q279.53125 61.572914 279.53125 62.43229L278.45312 62.43229Q278.45312 61.99479 278.0625 61.68229Q277.6875 61.354164 277.125 61.354164Q276.53125 61.354164 276.1875 61.61979Q275.85938 61.86979 275.85938 62.27604Q275.85938 62.666664 276.17188 62.86979Q276.48438 63.072914 277.29688 63.260414Q278.10938 63.43229 278.60938 63.68229Q279.10938 63.93229 279.34375 64.291664Q279.59375 64.65104 279.59375 65.15104Q279.59375 66.010414 278.90625 66.52604Q278.23438 67.041664 277.15625 67.041664Q276.39062 67.041664 275.79688 66.77604Q275.21875 66.49479 274.89062 66.010414Q274.5625 65.52604 274.5625 64.96354L275.64062 64.96354Q275.67188 65.510414 276.07812 65.83854Q276.48438 66.15104 277.15625 66.15104Q277.76562 66.15104 278.14062 65.90104Q278.51562 65.65104 278.51562 65.229164Z" fill-rule="nonzero"/><path stroke="#0000ff" stroke-width="4.0" stroke-linecap="butt" d="M296.0 62.416668L308.0 62.416668" fill-rule="nonzero"/><path fill="#757575" d="M322.89062 59.30729L320.14062 59.30729L320.14062 66.916664L319.03125 66.916664L319.03125 59.30729L316.28125 59.30729L316.28125 58.385414L322.89062 58.385414L322.89062 59.30729ZM324.90625 61.33854Q325.625 60.46354 326.78125 60.46354Q328.79688 60.46354 328.8125 62.729164L328.8125 66.916664L327.71875 66.916664L327.71875 62.71354Q327.71875 62.041664 327.40625 61.71354Q327.10938 61.385414 326.45312 61.385414Q325.92188 61.385414 325.51562 61.666664Q325.125 61.947914 324.90625 62.40104L324.90625 66.916664L323.82812 66.916664L323.82812 57.916664L324.90625 57.916664L324.90625 61.33854ZM333.89062 61.541664Q333.64062 61.510414 333.35938 61.510414Q332.28125 61.510414 331.90625 62.416664L331.90625 66.916664L330.82812 66.916664L330.82812 60.572914L331.875 60.572914L331.89062 61.30729Q332.42188 60.46354 333.40625 60.46354Q333.71875 60.46354 333.89062 60.541664L333.89062 61.541664ZM334.53125 63.68229Q334.53125 62.760414 334.89062 62.010414Q335.26562 61.260414 335.92188 60.86979Q336.57812 60.46354 337.40625 60.46354Q338.70312 60.46354 339.5 61.354164Q340.3125 62.24479 340.3125 63.74479L340.3125 63.822914Q340.3125 64.74479 339.95312 65.479164Q339.59375 66.21354 338.9375 66.635414Q338.28125 67.041664 337.42188 67.041664Q336.14062 67.041664 335.32812 66.15104Q334.53125 65.24479 334.53125 63.760414L334.53125 63.68229ZM335.625 63.822914Q335.625 64.86979 336.10938 65.510414Q336.60938 66.15104 337.42188 66.15104Q338.25 66.15104 338.73438 65.510414Q339.21875 64.854164 339.21875 63.68229Q339.21875 62.65104 338.71875 62.010414Q338.23438 61.354164 337.40625 61.354164Q336.60938 61.354164 336.10938 61.99479Q335.625 62.61979 335.625 63.822914ZM345.73438 66.291664Q345.10938 67.041664 343.875 67.041664Q342.85938 67.041664 342.32812 66.447914Q341.79688 65.854164 341.79688 64.697914L341.79688 60.572914L342.875 60.572914L342.875 64.666664Q342.875 66.11979 344.04688 66.11979Q345.29688 66.11979 345.70312 65.18229L345.70312 60.572914L346.79688 60.572914L346.79688 66.916664L345.76562 66.916664L345.73438 66.291664ZM348.5625 63.697914Q348.5625 62.21354 349.25 61.33854Q349.9375 60.46354 351.0625 60.46354Q352.21875 60.46354 352.875 61.27604L352.92188 60.572914L353.92188 60.572914L353.92188 66.760414Q353.92188 67.99479 353.1875 68.697914Q352.45312 69.416664 351.23438 69.416664Q350.54688 69.416664 349.89062 69.11979Q349.23438 68.822914 348.89062 68.322914L349.45312 67.666664Q350.14062 68.52604 351.15625 68.52604Q351.9375 68.52604 352.375 68.072914Q352.82812 67.635414 352.82812 66.822914L352.82812 66.27604Q352.17188 67.041664 351.04688 67.041664Q349.9375 67.041664 349.25 66.15104Q348.5625 65.24479 348.5625 63.697914ZM349.65625 63.822914Q349.65625 64.885414 350.09375 65.510414Q350.53125 66.11979 351.32812 66.11979Q352.34375 66.11979 352.82812 65.18229L352.82812 62.291664Q352.32812 61.385414 351.32812 61.385414Q350.54688 61.385414 350.09375 61.99479Q349.65625 62.604164 349.65625 63.822914ZM356.90625 61.33854Q357.625 60.46354 358.78125 60.46354Q360.79688 60.46354 360.8125 62.729164L360.8125 66.916664L359.71875 66.916664L359.71875 62.71354Q359.71875 62.041664 359.40625 61.71354Q359.10938 61.385414 358.45312 61.385414Q357.92188 61.385414 357.51562 61.666664Q357.125 61.947914 356.90625 62.40104L356.90625 66.916664L355.82812 66.916664L355.82812 57.916664L356.90625 57.916664L356.90625 61.33854ZM368.17188 63.822914Q368.17188 65.260414 367.51562 66.15104Q366.85938 67.041664 365.71875 67.041664Q364.5625 67.041664 363.90625 66.30729L363.90625 69.354164L362.82812 69.354164L362.82812 60.572914L363.8125 60.572914L363.85938 61.27604Q364.53125 60.46354 365.70312 60.46354Q366.84375 60.46354 367.5 61.322914Q368.17188 62.18229 368.17188 63.71354L368.17188 63.822914ZM367.09375 63.697914Q367.09375 62.61979 366.625 62.010414Q366.17188 61.385414 365.375 61.385414Q364.39062 61.385414 363.90625 62.24479L363.90625 65.27604Q364.39062 66.15104 365.39062 66.15104Q366.17188 66.15104 366.625 65.541664Q367.09375 64.916664 367.09375 63.697914ZM373.73438 66.291664Q373.10938 67.041664 371.875 67.041664Q370.85938 67.041664 370.32812 66.447914Q369.79688 65.854164 369.79688 64.697914L369.79688 60.572914L370.875 60.572914L370.875 64.666664Q370.875 66.11979 372.04688 66.11979Q373.29688 66.11979 373.70312 65.18229L373.70312 60.572914L374.79688 60.572914L374.79688 66.916664L373.76562 66.916664L373.73438 66.291664ZM378.29688 59.041664L378.29688 60.572914L379.46875 60.572914L379.46875 61.416664L378.29688 61.416664L378.29688 65.33854Q378.29688 65.729164 378.45312 65.916664Q378.60938 66.104164 378.98438 66.104164Q379.17188 66.104164 379.5 66.041664L379.5 66.916664Q379.07812 67.041664 378.67188 67.041664Q377.95312 67.041664 377.57812 66.604164Q377.20312 66.15104 377.20312 65.33854L377.20312 61.416664L376.04688 61.416664L376.04688 60.572914L377.20312 60.572914L377.20312 59.041664L378.29688 59.041664Z" fill-rule="nonzero"/><path fill="#757575" d="M30.01875 24.878124L25.45625 24.878124L25.45625 37.55L23.596874 37.55L23.596874 24.878124L19.034374 24.878124L19.034374 23.33125L30.01875 23.33125L30.01875 24.878124ZM33.721874 28.26875Q34.925 26.784374 36.846874 26.784374Q40.20625 26.784374 40.221874 30.565624L40.221874 37.55L38.425 37.55L38.425 30.55Q38.409374 29.409374 37.89375 28.8625Q37.39375 28.315624 36.3 28.315624Q35.425 28.315624 34.753124 28.784374Q34.096874 29.253124 33.721874 30.01875L33.721874 37.55L31.925 37.55L31.925 22.55L33.721874 22.55L33.721874 28.26875ZM48.01875 28.596874Q47.6125 28.534374 47.14375 28.534374Q45.3625 28.534374 44.721874 30.05L44.721874 37.55L42.925 37.55L42.925 26.9875L44.675 26.9875L44.70625 28.20625Q45.596874 26.784374 47.221874 26.784374Q47.753124 26.784374 48.01875 26.925L48.01875 28.596874ZM49.440624 32.175Q49.440624 30.6125 50.05 29.378124Q50.659374 28.128124 51.7375 27.45625Q52.83125 26.784374 54.2375 26.784374Q56.39375 26.784374 57.721874 28.284374Q59.065624 29.76875 59.065624 32.253124L59.065624 32.378124Q59.065624 33.925 58.471874 35.159374Q57.878124 36.378124 56.76875 37.065624Q55.675 37.753124 54.253124 37.753124Q52.1125 37.753124 50.76875 36.253124Q49.440624 34.753124 49.440624 32.3L49.440624 32.175ZM51.253124 32.378124Q51.253124 34.14375 52.065624 35.20625Q52.89375 36.26875 54.253124 36.26875Q55.628124 36.26875 56.440624 35.190624Q57.253124 34.1125 57.253124 32.175Q57.253124 30.425 56.425 29.346874Q55.596874 28.26875 54.2375 28.26875Q52.89375 28.26875 52.065624 29.33125Q51.253124 30.39375 51.253124 32.378124ZM67.44063 36.503124Q66.39375 37.753124 64.34688 37.753124Q62.659374 37.753124 61.76875 36.76875Q60.89375 35.784374 60.878124 33.8625L60.878124 26.9875L62.690624 26.9875L62.690624 33.815624Q62.690624 36.20625 64.64375 36.20625Q66.70625 36.20625 67.39375 34.675L67.39375 26.9875L69.20625 26.9875L69.20625 37.55L67.4875 37.55L67.44063 36.503124ZM71.4875 32.175Q71.4875 29.70625 72.62813 28.253124Q73.76875 26.784374 75.65938 26.784374Q77.59688 26.784374 78.675 28.159374L78.76875 26.9875L80.40938 26.9875L80.40938 37.3Q80.40938 39.346874 79.19063 40.51875Q77.9875 41.70625 75.925 41.70625Q74.78438 41.70625 73.69063 41.221874Q72.59688 40.7375 72.01875 39.878124L72.95625 38.8Q74.12813 40.2375 75.8 40.2375Q77.12813 40.2375 77.8625 39.4875Q78.59688 38.753124 78.59688 37.409374L78.59688 36.4875Q77.51875 37.753124 75.64375 37.753124Q73.78438 37.753124 72.62813 36.253124Q71.4875 34.753124 71.4875 32.175ZM73.3 32.378124Q73.3 34.175 74.03438 35.190624Q74.76875 36.20625 76.08125 36.20625Q77.8 36.20625 78.59688 34.659374L78.59688 29.83125Q77.76875 28.315624 76.1125 28.315624Q74.78438 28.315624 74.03438 29.346874Q73.3 30.378124 73.3 32.378124ZM84.72188 28.26875Q85.925 26.784374 87.84688 26.784374Q91.20625 26.784374 91.22188 30.565624L91.22188 37.55L89.425 37.55L89.425 30.55Q89.40938 29.409374 88.89375 28.8625Q88.39375 28.315624 87.3 28.315624Q86.425 28.315624 85.75313 28.784374Q85.09688 29.253124 84.72188 30.01875L84.72188 37.55L82.925 37.55L82.925 22.55L84.72188 22.55L84.72188 28.26875ZM102.84688 32.378124Q102.84688 34.8 101.7375 36.284374Q100.64375 37.753124 98.75313 37.753124Q96.83125 37.753124 95.72188 36.51875L95.72188 41.6125L93.925 41.6125L93.925 26.9875L95.56563 26.9875L95.65938 28.159374Q96.75313 26.784374 98.72188 26.784374Q100.62813 26.784374 101.7375 28.221874Q102.84688 29.659374 102.84688 32.221874L102.84688 32.378124ZM101.03438 32.175Q101.03438 30.39375 100.26875 29.3625Q99.51875 28.315624 98.19063 28.315624Q96.55 28.315624 95.72188 29.76875L95.72188 34.83125Q96.53438 36.26875 98.20625 36.26875Q99.50313 36.26875 100.26875 35.2375Q101.03438 34.20625 101.03438 32.175ZM111.44063 36.503124Q110.39375 37.753124 108.34688 37.753124Q106.65938 37.753124 105.76875 36.76875Q104.89375 35.784374 104.87813 33.8625L104.87813 26.9875L106.69063 26.9875L106.69063 33.815624Q106.69063 36.20625 108.64375 36.20625Q110.70625 36.20625 111.39375 34.675L111.39375 26.9875L113.20625 26.9875L113.20625 37.55L111.4875 37.55L111.44063 36.503124ZM118.3625 24.425L118.3625 26.9875L120.34688 26.9875L120.34688 28.378124L118.3625 28.378124L118.3625 34.925Q118.3625 35.565624 118.62813 35.89375Q118.89375 36.20625 119.53438 36.20625Q119.84688 36.20625 120.39375 36.08125L120.39375 37.55Q119.675 37.753124 119.00313 37.753124Q117.8 37.753124 117.175 37.01875Q116.56563 36.284374 116.56563 34.925L116.56563 28.378124L114.64375 28.378124L114.64375 26.9875L116.56563 26.9875L116.56563 24.425L118.3625 24.425ZM134.44063 37.55Q134.28438 37.2375 134.19063 36.440624Q132.925 37.753124 131.175 37.753124Q129.6125 37.753124 128.6125 36.8625Q127.6125 35.971874 127.6125 34.6125Q127.6125 32.971874 128.8625 32.065624Q130.12813 31.14375 132.39375 31.14375L134.15938 31.14375L134.15938 30.315624Q134.15938 29.3625 133.58125 28.8Q133.01875 28.2375 131.925 28.2375Q130.95625 28.2375 130.3 28.7375Q129.64375 29.221874 129.64375 29.909374L127.83125 29.909374Q127.83125 29.128124 128.39375 28.39375Q128.95625 27.64375 129.90938 27.221874Q130.87813 26.784374 132.03438 26.784374Q133.8625 26.784374 134.89375 27.70625Q135.925 28.6125 135.97188 30.221874L135.97188 35.08125Q135.97188 36.534374 136.33125 37.39375L136.33125 37.55L134.44063 37.55ZM131.44063 36.175Q132.3 36.175 133.05 35.7375Q133.81563 35.3 134.15938 34.596874L134.15938 32.425L132.7375 32.425Q129.425 32.425 129.425 34.3625Q129.425 35.221874 129.9875 35.70625Q130.55 36.175 131.44063 36.175ZM140.62813 26.9875L140.69063 28.315624Q141.89375 26.784374 143.84688 26.784374Q147.20625 26.784374 147.22188 30.565624L147.22188 37.55L145.425 37.55L145.425 30.55Q145.40938 29.409374 144.89375 28.8625Q144.39375 28.315624 143.3 28.315624Q142.425 28.315624 141.75313 28.784374Q141.09688 29.253124 140.72188 30.01875L140.72188 37.55L138.925 37.55L138.925 26.9875L140.62813 26.9875ZM149.47188 32.175Q149.47188 29.753124 150.62813 28.26875Q151.78438 26.784374 153.64375 26.784374Q155.50313 26.784374 156.58125 28.05L156.58125 22.55L158.39375 22.55L158.39375 37.55L156.7375 37.55L156.64375 36.409374Q155.56563 37.753124 153.62813 37.753124Q151.8 37.753124 150.62813 36.253124Q149.47188 34.7375 149.47188 32.315624L149.47188 32.175ZM151.28438 32.378124Q151.28438 34.175 152.01875 35.190624Q152.76875 36.20625 154.08125 36.20625Q155.8 36.20625 156.58125 34.675L156.58125 29.815624Q155.78438 28.315624 154.09688 28.315624Q152.76875 28.315624 152.01875 29.346874Q151.28438 30.378124 151.28438 32.378124ZM166.20625 37.55L166.20625 23.33125L170.22188 23.33125Q172.06563 23.33125 173.4875 24.159374Q174.925 24.971874 175.69063 26.4875Q176.47188 28.003124 176.4875 29.95625L176.4875 30.8625Q176.4875 32.878124 175.70625 34.39375Q174.925 35.909374 173.4875 36.721874Q172.05 37.534374 170.14375 37.55L166.20625 37.55ZM168.08125 24.878124L168.08125 36.01875L170.05 36.01875Q172.22188 36.01875 173.425 34.675Q174.62813 33.315624 174.62813 30.83125L174.62813 30.003124Q174.62813 27.58125 173.4875 26.2375Q172.34688 24.89375 170.26875 24.878124L168.08125 24.878124ZM183.3 37.753124Q181.15938 37.753124 179.8 36.346874Q178.45625 34.925 178.45625 32.565624L178.45625 32.221874Q178.45625 30.659374 179.05 29.425Q179.65938 28.190624 180.7375 27.4875Q181.81563 26.784374 183.08125 26.784374Q185.14375 26.784374 186.28438 28.14375Q187.425 29.503124 187.425 32.034374L187.425 32.784374L180.26875 32.784374Q180.3 34.346874 181.175 35.315624Q182.05 36.26875 183.39375 36.26875Q184.3625 36.26875 185.01875 35.878124Q185.69063 35.4875 186.19063 34.846874L187.28438 35.70625Q185.95625 37.753124 183.3 37.753124ZM183.08125 28.26875Q181.9875 28.26875 181.2375 29.065624Q180.50313 29.8625 180.33125 31.3L185.6125 31.3L185.6125 31.159374Q185.53438 29.784374 184.8625 29.034374Q184.20625 28.26875 183.08125 28.26875ZM190.8 37.55L190.8 28.378124L189.14375 28.378124L189.14375 26.9875L190.8 26.9875L190.8 25.89375Q190.8 24.20625 191.70625 23.284374Q192.62813 22.346874 194.28438 22.346874Q194.90938 22.346874 195.51875 22.503124L195.425 23.971874Q194.97188 23.89375 194.45625 23.89375Q193.56563 23.89375 193.08125 24.409374Q192.6125 24.909374 192.6125 25.8625L192.6125 26.9875L194.8625 26.9875L194.8625 28.378124L192.6125 28.378124L192.6125 37.55L190.8 37.55ZM201.3 37.753124Q199.15938 37.753124 197.8 36.346874Q196.45625 34.925 196.45625 32.565624L196.45625 32.221874Q196.45625 30.659374 197.05 29.425Q197.65938 28.190624 198.7375 27.4875Q199.81563 26.784374 201.08125 26.784374Q203.14375 26.784374 204.28438 28.14375Q205.425 29.503124 205.425 32.034374L205.425 32.784374L198.26875 32.784374Q198.3 34.346874 199.175 35.315624Q200.05 36.26875 201.39375 36.26875Q202.3625 36.26875 203.01875 35.878124Q203.69063 35.4875 204.19063 34.846874L205.28438 35.70625Q203.95625 37.753124 201.3 37.753124ZM201.08125 28.26875Q199.9875 28.26875 199.2375 29.065624Q198.50313 29.8625 198.33125 31.3L203.6125 31.3L203.6125 31.159374Q203.53438 29.784374 202.8625 29.034374Q202.20625 28.26875 201.08125 28.26875ZM212.15938 36.26875Q213.12813 36.26875 213.84688 35.690624Q214.56563 35.096874 214.64375 34.221874L216.3625 34.221874Q216.3 35.128124 215.72188 35.95625Q215.15938 36.76875 214.19063 37.26875Q213.2375 37.753124 212.15938 37.753124Q210.00313 37.753124 208.72188 36.315624Q207.45625 34.8625 207.45625 32.3625L207.45625 32.065624Q207.45625 30.51875 208.01875 29.315624Q208.58125 28.1125 209.64375 27.45625Q210.70625 26.784374 212.14375 26.784374Q213.925 26.784374 215.09688 27.846874Q216.28438 28.909374 216.3625 30.6125L214.64375 30.6125Q214.56563 29.596874 213.8625 28.940624Q213.175 28.26875 212.14375 28.26875Q210.76875 28.26875 210.00313 29.26875Q209.25313 30.253124 209.25313 32.128124L209.25313 32.471874Q209.25313 34.3 210.00313 35.284374Q210.75313 36.26875 212.15938 36.26875ZM220.3625 24.425L220.3625 26.9875L222.34688 26.9875L222.34688 28.378124L220.3625 28.378124L220.3625 34.925Q220.3625 35.565624 220.62813 35.89375Q220.89375 36.20625 221.53438 36.20625Q221.84688 36.20625 222.39375 36.08125L222.39375 37.55Q221.675 37.753124 221.00313 37.753124Q219.8 37.753124 219.175 37.01875Q218.56563 36.284374 218.56563 34.925L218.56563 28.378124L216.64375 28.378124L216.64375 26.9875L218.56563 26.9875L218.56563 24.425L220.3625 24.425ZM231.06563 34.753124Q231.06563 34.01875 230.51875 33.6125Q229.97188 33.20625 228.59688 32.909374Q227.22188 32.6125 226.40938 32.20625Q225.6125 31.8 225.22188 31.2375Q224.84688 30.659374 224.84688 29.878124Q224.84688 28.58125 225.94063 27.690624Q227.03438 26.784374 228.75313 26.784374Q230.55 26.784374 231.65938 27.721874Q232.78438 28.64375 232.78438 30.08125L230.95625 30.08125Q230.95625 29.346874 230.33125 28.815624Q229.70625 28.26875 228.75313 28.26875Q227.75313 28.26875 227.19063 28.70625Q226.64375 29.128124 226.64375 29.83125Q226.64375 30.471874 227.15938 30.815624Q227.675 31.14375 229.03438 31.45625Q230.39375 31.753124 231.22188 32.175Q232.06563 32.58125 232.47188 33.175Q232.87813 33.76875 232.87813 34.6125Q232.87813 36.034374 231.7375 36.89375Q230.6125 37.753124 228.8 37.753124Q227.53438 37.753124 226.55 37.3Q225.58125 36.846874 225.01875 36.05Q224.47188 35.2375 224.47188 34.3L226.28438 34.3Q226.33125 35.20625 227.00313 35.7375Q227.69063 36.26875 228.8 36.26875Q229.83125 36.26875 230.44063 35.8625Q231.06563 35.440624 231.06563 34.753124Z" fill-rule="nonzero"/></svg>