<?xml version="1.0" standalone="no"?>
<!DOCTYPE svg PUBLIC "-//W3C//DTD SVG 20010904//EN"
 "http://www.w3.org/TR/2001/REC-SVG-20010904/DTD/svg10.dtd">
<svg version="1.0" xmlns="http://www.w3.org/2000/svg"
 width="380.000000pt" height="380.000000pt" viewBox="0 0 380.000000 380.000000"
 preserveAspectRatio="xMidYMid meet">
<metadata>
Created by potrace 1.11, written by Peter Selinger 2001-2013
</metadata>
<g transform="translate(0.000000,380.000000) scale(0.100000,-0.100000)"
fill="#000000" stroke="none">
<path d="M0 1900 l0 -1900 1900 0 1900 0 0 1900 0 1900 -1900 0 -1900 0 0
-1900z m3337 493 c29 -14 62 -36 74 -49 18 -20 20 -26 9 -39 -12 -14 -16 -13
-39 8 -43 39 -78 57 -143 73 -220 57 -413 -126 -329 -312 34 -74 81 -102 333
-194 89 -33 149 -79 180 -140 68 -128 9 -289 -130 -357 -50 -25 -68 -28 -152
-28 -66 0 -111 6 -147 18 -54 19 -163 91 -163 108 0 25 34 18 81 -17 204 -149
498 -57 499 157 0 62 -21 108 -69 152 -50 46 -62 51 -192 98 -60 21 -131 50
-158 63 -197 100 -187 377 16 468 95 42 237 38 330 -9z m-2919 -226 l2 -237
340 0 340 0 0 241 c0 224 1 240 18 237 16 -3 17 -37 20 -516 2 -507 2 -512
-18 -512 -20 0 -20 6 -20 255 l0 255 -340 0 -340 0 0 -255 c0 -248 -1 -255
-20 -255 -20 0 -20 7 -20 516 0 486 1 515 18 512 15 -3 17 -24 20 -241z m1052
-272 c0 -508 0 -515 -20 -515 -20 0 -20 7 -20 508 0 280 3 512 7 515 3 4 12 7
20 7 11 0 13 -93 13 -515z m676 505 c297 -31 460 -187 481 -460 20 -270 -111
-465 -364 -536 -43 -13 -114 -18 -275 -21 l-218 -5 0 516 0 516 143 0 c78 0
183 -5 233 -10z"/>
<path d="M1810 1895 l0 -475 173 0 c107 1 196 6 236 14 89 19 202 79 252 133
180 195 145 573 -65 707 -113 72 -225 96 -450 96 l-146 0 0 -475z"/>
</g>
</svg>
